<svg width="35" height="45" viewBox="0 0 35 45" fill="none" xmlns="http://www.w3.org/2000/svg">
                            <path fill-rule="evenodd" clip-rule="evenodd" d="M15.1314 11.1265C18.8385 11.0541 22.2922 13.2098 24.1648 16.7648C26.0374 20.3197 26.0374 24.7206 24.1648 28.2755C22.2922 31.8305 18.8385 33.9861 15.1314 33.9138H10.0026L10.0025 44.9999H0L7.20286e-05 11.1265H15.1314ZM34.9995 28.2069L34.9995 44.9999L18.4854 45C22.6827 44.228 26.5907 42.0181 29.6387 38.633C32.2544 35.7279 34.0912 32.1191 34.9995 28.2069ZM34.9995 0.000751523L35 16.8102C32.9752 8.09318 26.4243 1.39723 18.2976 0L34.9995 0.000751523Z" fill="#141414" style="fill: rgb(255, 255, 255);"></path>
                        </svg>